<svg width="293" height="63" viewBox="0 0 293 63" fill="none" xmlns="http://www.w3.org/2000/svg">
<path d="M80.1871 10.1922C80.0733 6.17335 76.9653 -1.68216 72.0129 0.321568C71.0566 0.79973 70.4758 1.88129 69.9066 2.7693C69.3032 3.74839 68.7568 4.75026 68.1192 5.70658C66.5595 8.09739 64.5786 9.94172 62.3244 11.4901C61.1063 12.3781 59.6945 13.3116 58.112 12.7993C55.8692 12.1276 53.6264 11.7291 51.3267 11.3762C49.2433 11.1827 47.0346 11.1599 44.9626 11.1713C40.4201 11.3079 35.8774 12.4691 31.7789 14.4273C30.8112 14.8713 29.798 15.3723 28.8303 15.8846C28.1814 16.2489 27.3617 16.5221 26.7127 16.0781C25.9613 15.5772 25.3238 14.803 24.5724 14.2338C19.7908 10.4768 13.5519 7.4143 7.44961 6.92475C4.47818 6.86783 1.23361 8.62109 0.300059 11.547C-0.90673 17.376 1.65483 23.4213 5.68505 28.0663C7.75708 30.3547 10.4553 32.3356 13.3926 33.2578C15.9655 33.9295 14.9181 35.2046 14.7929 37.2083C14.4627 40.8059 15.2369 44.654 17.4797 47.6368C18.2083 48.4223 19.1077 48.7183 19.7111 49.5494C20.2803 50.4033 20.7015 51.4165 21.3732 52.2249C23.6388 55.1849 27.3162 57.3822 30.743 58.9077C40.8641 63.1884 53.8883 63.8487 63.5767 58.5548C69.383 55.4809 76.8742 49.1737 75.7016 41.4207C75.4625 39.2576 73.9825 37.3449 73.584 35.1932C73.3222 33.3489 73.3107 31.3793 72.9236 29.535C72.7984 28.5103 72.0356 27.2922 72.7642 26.3586C72.9805 26.074 73.3107 25.8235 73.6067 25.5958C74.5744 24.8558 75.4397 23.945 76.1228 23.0115C78.7413 19.3 80.4945 14.6892 80.1871 10.2719V10.2036V10.1922Z" fill="#010801"/>
<path d="M43.4041 12.5607C45.7721 12.2761 48.0263 12.6176 50.3715 12.5379L51.009 12.7087L51.2936 12.6518L52.5915 12.8681C53.2632 13.0161 54.2196 13.3463 54.8913 13.3121L56.0867 13.5626C61.8361 15.0881 66.2077 18.3442 69.2019 23.5243C69.7939 24.5489 70.3859 25.6418 70.7616 26.7689C71.217 27.7936 71.479 28.8524 71.7408 29.9339C70.3064 28.4311 69.0881 27.4406 66.9136 27.3837H66.6859C65.0237 27.805 63.8511 28.488 62.9631 30.0136C62.2914 31.1635 61.9043 32.4955 61.5172 33.7706C61.1756 36.6282 60.9822 41.387 62.781 43.8575C63.4755 44.8025 64.9441 45.1668 66.0484 45.2806C67.6082 45.44 69.0198 45.0643 70.2152 44.0283C72.1051 42.4117 72.7426 40.2144 73.2322 37.8805L73.8584 39.5313C74.8261 41.6147 74.7806 44.2105 74.0064 46.3508C71.9913 51.861 66.0597 56.062 60.9365 58.4073C52.7053 62.1643 41.2295 61.5267 32.8617 58.3504C28.638 56.7565 23.0252 53.7054 21.1125 49.3564C20.8051 48.6505 20.327 46.8745 19.7578 46.4419C19.439 46.7265 19.1886 47.364 18.8015 47.3982C18.4941 47.0567 18.2778 46.681 18.0501 46.2825C17.7085 45.7133 17.4239 45.144 17.162 44.5292C15.83 41.6147 15.6934 38.1424 16.4334 35.0685C17.902 34.9774 18.8243 34.7155 20.0538 33.8958C18.7673 33.782 17.5149 33.5429 16.2626 33.2469C16.2626 33.1444 16.2399 33.0192 16.1944 32.9281C15.9667 32.4613 15.4202 32.4727 14.9648 32.3703C16.8092 32.3361 18.0843 32.1767 19.5188 30.9244C19.8034 30.8789 20.0538 30.6853 20.3042 30.5487L19.9286 29.8542C19.3707 29.6948 18.8698 28.9434 18.5169 28.5222C18.2892 28.3514 18.0386 28.0099 17.9703 27.7253C17.902 27.4976 18.0159 27.4179 18.1183 27.2243C19.8033 26.2111 20.8394 27.3837 22.4788 27.6683L22.7292 27.452L22.7634 26.7006L22.9 26.5982C23.6856 27.5317 23.879 29.2964 25.0858 29.7973L25.268 29.6038C26.8619 28.841 27.898 27.2699 28.6038 25.6988C28.786 25.38 28.9339 25.0726 29.0705 24.7311C30.0496 22.1353 29.5601 20.0064 28.433 17.57C29.5715 16.9666 30.7328 16.386 31.894 15.8168C32.486 15.5094 33.1236 15.2703 33.7384 15.0084C34.0344 14.8377 34.3075 14.7466 34.6377 14.6441L36.1405 13.9952C36.7895 13.9041 37.4498 13.6309 38.1215 13.5284C39.8634 13.1186 41.628 12.629 43.4268 12.5721L43.4041 12.5607Z" fill="#FFF4D4"/>
<path d="M43.3797 12.5267C45.5997 12.2876 47.7629 12.5494 49.9715 12.5267C50.518 12.5267 50.9506 12.6747 51.5312 12.6747C52.4534 12.7771 53.3413 13.0504 54.2635 13.2325C54.8099 13.2895 55.3906 13.3691 55.9143 13.4944C56.0851 13.5285 56.1306 13.5627 56.1876 13.6538C56.347 13.9384 56.9617 15.0541 57.2805 15.6347C58.1457 17.3083 58.772 19.0843 59.068 20.94C59.364 23.5016 59.6144 26.8487 59.011 29.5697C58.7036 32.4728 58.4304 35.5809 57.7359 38.4043C57.6562 38.8825 57.0642 38.9849 56.7796 38.5979C56.5178 38.2563 56.3811 37.8237 56.3242 37.4025C56.2331 36.7194 56.0623 36.0477 55.8688 35.376C53.3869 26.1998 46.4536 18.9705 37.266 16.3975C36.1048 16.0446 34.8866 15.703 33.8506 15.0996C33.4863 14.8378 34.5905 14.6329 34.7613 14.5076C35.0118 14.3938 35.4785 14.1888 35.7518 14.075C36.4235 13.8359 37.0952 13.7221 37.7783 13.5399C39.6112 13.1301 41.4442 12.6064 43.3341 12.5381H43.3683L43.3797 12.5267Z" fill="#010801"/>
<path d="M43.4019 12.5607C45.7699 12.2761 48.0241 12.6176 50.3693 12.5379L51.0068 12.7087C51.2004 13.5626 51.4736 14.3823 51.7355 15.2134C52.2819 16.1242 52.5666 17.0805 52.8171 18.1051C51.7583 18.5605 50.7564 18.8565 49.6293 19.0842C48.2859 18.1734 46.692 16.8528 45.0754 16.5682C44.8591 16.6365 44.7111 16.682 44.5289 16.7959C43.6523 16.5454 42.7756 16.0445 41.8876 15.7598C40.0091 15.1564 37.8802 14.8832 36.127 13.9724C36.7759 13.8813 37.4362 13.6081 38.1079 13.5056C39.8498 13.0958 41.6145 12.6063 43.4133 12.5493L43.4019 12.5607Z" fill="#010801"/>
<path d="M43.4023 12.5607C45.7704 12.2761 48.0246 12.6176 50.3698 12.5379L51.0073 12.7087C51.2009 13.5626 51.4741 14.3823 51.736 15.2134C50.8707 15.0768 49.2769 14.61 48.5027 15.0881L48.3889 15.3044C48.3889 15.5208 48.3546 15.6574 48.2977 15.8737C47.8196 15.8965 47.5235 15.5208 47.1478 15.2361C46.6128 14.906 46.1005 14.5417 45.5995 14.166C45.0303 13.6878 44.4952 13.6764 43.8918 13.3463C43.5275 13.1527 43.5162 12.925 43.4023 12.5607Z" fill="#424947"/>
<path d="M45.5996 14.1651C45.9184 13.8691 45.907 13.835 46.3396 13.835L47.0113 14.2904L48.4004 15.3036C48.4004 15.5199 48.3661 15.6565 48.3092 15.8728C47.831 15.8956 47.535 15.5199 47.1593 15.2353C46.6242 14.9051 46.1119 14.5408 45.611 14.1651H45.5996Z" fill="#2EBF58"/>
<path d="M38.0957 13.5164C39.8376 13.1065 41.6023 12.617 43.4011 12.5601C43.5149 12.9244 43.5262 13.1521 43.8905 13.3456C44.4939 13.6758 45.029 13.6758 45.5982 14.1653C46.0992 14.5524 46.6001 14.9053 47.1466 15.2355C44.4825 16.4764 41.0786 14.4158 38.4145 13.8352C38.3576 13.8238 38.3006 13.8124 38.2323 13.801L38.0957 13.505V13.5164Z" fill="#010801"/>
<path d="M51.0198 12.7083L51.3044 12.6514L52.6023 12.8677C52.8983 13.3686 53.0464 13.6646 53.1033 14.2452C53.1033 14.3363 53.126 14.4388 53.1373 14.5299L53.1601 14.7348L53.3765 15.509C53.6384 16.4767 54.2531 18.173 53.6042 19.0838C52.8072 20.1995 50.8148 20.2336 49.5625 20.393C48.1622 19.8124 46.9326 18.7309 45.612 17.9795C42.6406 16.2945 38.0639 14.9625 34.6484 14.6323L36.1513 13.9834C37.9046 14.8942 40.0335 15.156 41.9119 15.7708C42.8 16.0554 43.6881 16.5564 44.5533 16.8068C44.7468 16.693 44.8948 16.6474 45.0997 16.5791C46.7164 16.8637 48.3103 18.1844 49.6537 19.0952C50.7808 18.8675 51.7825 18.5601 52.8413 18.1161C52.5909 17.0914 52.3177 16.1351 51.7598 15.2243C51.498 14.3932 51.2247 13.5735 51.0312 12.7197L51.0198 12.7083Z" fill="#2EBF58"/>
<path d="M51.0205 12.7083L51.3052 12.6514C51.9882 13.9151 53.7188 16.6474 53.3317 18.1161C53.2064 18.617 52.8421 18.9585 52.4094 19.209C51.6353 19.653 50.4627 19.8124 49.586 19.9604C47.9239 18.8675 46.2617 17.7859 44.5312 16.7954C44.7248 16.6816 44.8728 16.636 45.0777 16.5677C46.6943 16.8524 48.2882 18.173 49.6316 19.0838C50.7587 18.8561 51.7606 18.5487 52.8194 18.1047C52.569 17.0801 52.2956 16.1237 51.7378 15.2129C51.4759 14.3819 51.2027 13.5622 51.0091 12.7083H51.0205Z" fill="#242625"/>
<path d="M54.9004 13.3008L56.0957 13.5512L57.462 16.0445C57.9515 17.1147 58.3499 18.1735 58.6801 19.312L58.9761 20.5871C59.3176 23.2169 59.591 27.1333 58.9079 29.7404L58.9307 30.2869C58.4866 33.042 58.3613 36.1159 57.5758 38.78C57.4164 36.9584 57.8148 34.8636 57.9742 33.0306C58.0881 31.6986 58.1108 30.3552 58.2589 29.0232C58.2589 28.3287 58.35 27.6798 58.441 26.9967C58.4638 25.3231 58.5321 23.6382 58.3727 21.9646L58.0654 19.8357C57.8035 18.8224 57.3708 17.8547 56.9838 16.887L56.2097 15.5094C55.8112 14.758 55.1964 14.1319 54.9004 13.3122V13.3008Z" fill="#28DA5E"/>
<path d="M52.5918 12.8672C53.2635 13.0152 54.2198 13.3453 54.8915 13.3112C55.1762 14.1309 55.791 14.7571 56.2008 15.5085C55.8251 16.2485 55.6656 16.8633 55.529 17.6716C55.0167 16.886 54.049 14.962 53.1496 14.7343L53.1268 14.5294C53.1268 14.4383 53.1042 14.3358 53.0928 14.2447C53.0473 13.6641 52.8878 13.3681 52.5918 12.8672Z" fill="#424947"/>
<path d="M20.064 33.9406C20.4625 33.8381 20.8951 33.9406 21.3163 33.9406C21.9994 33.9975 22.933 33.7584 23.3428 34.4301C23.8893 35.4206 25.3351 38.6197 25.8474 40.0087C25.9499 40.3047 26.0524 40.5096 25.893 40.6348C25.6084 40.8284 25.0619 40.6348 24.8228 40.7031C24.6065 40.7714 24.6976 41.0674 24.7317 41.2496C25.153 42.889 25.54 44.4943 26.2459 46.0312C26.3256 46.2361 26.4621 46.5663 26.2117 46.6688C26.0181 46.7712 25.6425 46.6118 25.4262 46.6915C24.9139 46.8851 25.6425 48.5359 25.836 48.9571C29.6386 56.1409 38.5415 58.9302 46.1921 59.1579C47.7176 59.1807 49.357 59.3287 50.894 59.0668C51.4746 58.9644 51.9869 58.7936 52.4309 58.5317C52.6472 58.4065 52.8749 58.304 53.1368 58.2585C53.6491 58.1674 54.1956 58.2927 54.7193 58.213C55.7894 58.0763 56.6775 57.4843 57.6452 57.1883C58.3511 56.9151 58.3283 57.7576 58.9317 57.6893C62.0398 57.1997 68.1534 52.9304 69.8725 50.9836C71.899 48.775 73.9141 45.8377 74.0166 42.9573C74.0394 42.0465 73.8002 41.113 73.8116 40.2022C73.8116 39.5419 73.9938 39.781 74.1304 40.2022C76.5554 48.2626 68.2102 54.8089 61.812 57.9853C52.2146 62.6758 39.088 61.5942 29.5475 56.9037C26.3028 55.2415 23.0354 53.0556 21.3391 49.8224C21.0089 49.219 20.7812 48.4106 20.4852 47.6934C20.3031 47.3291 20.1892 46.8509 19.8476 46.6346C19.5061 46.5435 19.3125 47.09 18.9938 47.1811C18.7091 47.2835 18.4929 46.9989 18.3449 46.7712C16.2045 43.481 15.4418 39.2914 16.3525 35.4547C16.4778 35.1018 16.8193 34.988 17.1608 34.9424C18.0261 34.8286 18.7206 34.6123 19.4948 34.1796C19.6655 34.0886 19.8477 33.9975 20.0412 33.9519H20.0754L20.064 33.9406Z" fill="#CFB593"/>
<path d="M22.0235 33.9978C22.4903 33.9637 22.7863 33.9295 23.2076 34.1914C23.6288 34.7947 26.0538 40.1228 26.0652 40.6921C25.7236 40.8401 25.3479 40.8173 24.9835 40.7035C24.9608 40.7035 24.9381 40.6807 24.9153 40.6693C24.8811 40.6579 24.6192 40.5896 24.5737 40.5782C25.1202 42.6275 25.5072 44.6312 26.5091 46.5211L26.4864 46.7716C26.0196 46.7716 25.6666 46.6691 25.2226 46.5439C24.6192 46.2479 24.0956 45.986 23.5946 45.5306C23.1734 45.1435 22.775 44.6881 22.2057 44.5515L22.0235 44.7792C21.9666 45.8949 22.2512 46.8968 22.5814 47.9556C22.1146 47.614 21.682 47.2839 21.3063 46.8513C19.6555 45.0183 18.3577 42.7413 18.5057 40.2025C18.665 37.584 20.1792 35.6828 22.0235 33.9978Z" fill="#010801"/>
<path d="M21.7371 37.0371C22.2608 38.0504 21.942 39.4165 22.2836 40.5095C22.6251 41.6138 23.9458 42.5929 23.8889 43.7428C23.1261 43.0938 22.4544 42.1944 22.0331 41.295C21.3728 39.8833 21.1793 38.5057 21.7371 37.0371Z" fill="#28DA5E"/>
<path d="M16.4212 35.0566C16.7969 35.0908 17.3775 35.0566 17.6849 35.2616C17.3775 37.8118 16.5465 41.3866 17.6167 43.8685C17.4687 44.21 17.4345 44.2897 17.1385 44.5174C15.8065 41.6029 15.6698 38.1305 16.4098 35.0566H16.4212Z" fill="#FFF4D4"/>
<path d="M54.3435 58.2587C55.8349 58.2017 56.9164 57.2227 58.294 57.0063L58.2712 57.3024C56.8367 58.2587 55.1746 59.4313 53.3416 58.9873C53.0114 58.9076 52.8862 58.8165 52.6471 58.5888L52.6016 58.4294C53.1822 58.3156 53.7742 58.3953 54.3435 58.2587Z" fill="#241512"/>
<path d="M17.6266 43.8687C18.0251 44.472 18.3895 44.7794 18.3781 45.5194C18.3325 45.5764 18.2756 45.6333 18.2301 45.6788C18.0138 45.9293 18.0593 45.9521 18.0365 46.2708C17.6949 45.7016 17.4103 45.1324 17.1484 44.5176C17.4444 44.3013 17.4786 44.2102 17.6266 43.8687Z" fill="#EAC1AF"/>
<path d="M33.6322 14.9621C33.7347 14.9621 33.8257 15.019 33.9282 15.0645C34.5771 15.4175 35.3058 15.7021 36.0458 15.9412C46.3376 18.4686 54.216 26.6543 56.3108 37.0827C56.3449 37.3104 56.4929 38.0391 56.2538 37.504C55.8098 36.5363 55.3999 35.5572 54.9787 34.6008C54.1134 32.5857 53.2141 30.582 52.0187 28.7035C47.2143 20.9619 40.3037 17.7741 31.9473 15.6338C32.3799 15.3719 32.8922 15.2125 33.359 15.0076C33.4387 14.9735 33.5297 14.9507 33.6094 14.9507H33.6322V14.9621Z" fill="#28DA5E"/>
<path d="M22.7289 27.4281L22.763 26.6767L22.8997 26.5742C23.6852 27.5078 23.8787 29.2724 25.0854 29.7733C25.1538 30.2743 25.279 30.7411 25.0854 31.2306C24.7667 31.4583 24.6187 31.4925 24.2316 31.4014C23.1728 31.1623 20.8276 29.3521 19.9282 29.853C19.3704 29.6937 18.8695 28.9423 18.5165 28.521C18.2888 28.3502 18.0383 28.0087 17.9699 27.7241C17.9016 27.4964 18.0155 27.4167 18.118 27.2232C19.8029 26.2099 20.839 27.3825 22.4784 27.6672L22.7289 27.4508V27.4281Z" fill="#CFB593"/>
<path d="M62.9372 28.3846C63.4951 27.3144 64.4287 26.3467 65.5672 25.8686C67.3887 25.1058 69.0395 26.2329 70.1211 26.5744C70.6675 26.711 71.0432 27.1323 71.2254 27.6787C71.4075 28.2252 71.8971 29.6255 71.7264 29.9329C71.6467 30.024 71.3279 29.5231 71.0319 29.284C67.1497 25.527 63.1194 28.0658 61.6963 33.0979C61.3092 34.3275 61.4344 33.2459 61.5027 32.7336C61.7304 31.2308 62.2201 29.7735 62.9145 28.4074V28.3732L62.9372 28.3846Z" fill="#CFB593"/>
<path d="M20.3042 30.5361C20.3042 31.0598 20.179 31.3217 19.8146 31.6974C18.8697 32.6765 17.5491 33.0066 16.2626 33.2343C16.2626 33.1319 16.2399 33.0066 16.1944 32.9156C15.9667 32.4488 15.4202 32.4602 14.9648 32.3577C16.8092 32.3235 18.0843 32.1642 19.5188 30.9118C19.8034 30.8663 20.0538 30.6728 20.3042 30.5361Z" fill="#010801"/>
<path d="M29.5 31.6296C32.1412 27.4628 38.0842 26.552 42.0802 29.3185C45.4615 31.6183 47.3741 35.7737 47.0212 39.8381C47.1123 41.0676 47.3172 42.468 46.8618 43.6406C46.4747 44.8474 45.7461 44.1757 45.6095 43.2763C45.564 43.1966 45.5298 41.5913 45.4501 42.1378C45.359 43.0144 45.1769 44.2099 45.8031 44.8132C45.9511 44.9726 46.2585 44.984 46.3951 45.1434C46.6 45.6216 45.4842 46.02 45.1655 46.2022C43.4008 47.1813 41.6135 48.2173 39.6667 48.7068C31.8795 50.4146 27.6784 43.5609 28.3615 36.5251C28.4184 36.1722 28.1452 35.9103 28.1111 35.5688C27.9631 34.1798 28.6916 32.6657 29.4886 31.6752L29.5114 31.6524L29.5 31.6296Z" fill="#010801"/>
<path d="M34.6363 31.9372C36.1847 31.1403 38.4389 31.368 40.0669 31.9941C42.2414 32.848 43.7897 34.7151 44.6436 36.8555C44.9624 37.6865 45.304 38.6542 45.247 39.4967C45.1446 39.918 44.7688 40.214 44.6208 40.6238C44.4045 41.102 44.2452 41.5688 43.9947 42.0128C42.1162 45.6559 36.7312 45.9291 34.0216 43.0488C33.8053 42.8439 33.6117 42.6162 33.4182 42.3999C33.3271 42.3088 33.2132 42.2177 33.0766 42.2291C32.9058 42.2291 32.792 42.4568 32.644 42.5023C32.5529 42.5365 32.4504 42.5137 32.3708 42.4682C32.1658 42.3543 32.0292 42.1152 31.9609 41.8761C31.2551 39.6789 31.0957 37.0148 32.3139 35.0111C32.7921 34.1914 33.68 33.4856 34.0443 32.6317C34.1581 32.3471 34.3403 32.0966 34.6249 31.9486H34.6477L34.6363 31.9372Z" fill="#15621B"/>
<path d="M38.8727 34.112C40.273 33.5427 41.8554 34.8064 41.6277 36.2978C41.4569 37.9031 39.3963 38.6773 38.2123 37.5729C37.0852 36.6052 37.4268 34.6357 38.8385 34.1234H38.8727V34.112Z" fill="#FFF4D4"/>
<path d="M34.1706 32.2441C34.0909 33.0411 33.0206 33.9974 32.5539 34.6463C30.9941 36.8208 31.2332 39.9175 32.1212 42.3311L32.6677 42.6612C32.7815 42.2742 32.8157 42.2742 33.1459 42.0465C33.4419 42.4222 33.7492 42.7751 34.0908 43.1052C35.3886 44.369 37.0736 45.052 38.8837 45.0065C41.2859 44.9382 43.21 43.7542 44.2119 41.5683C44.451 41.0446 44.6901 40.2135 45.1113 39.815C45.1569 39.7695 45.2138 39.7467 45.2593 39.7126C45.3163 40.111 45.3617 40.5209 45.4414 40.9194L45.487 41.8643C45.4073 42.6954 45.1454 44.0274 45.7146 44.7333C45.7715 44.813 45.8513 44.8699 45.931 44.9382C45.2479 45.2 44.5648 45.4505 43.9045 45.7579C41.4112 46.9419 39.1457 47.9666 36.3109 47.3404C34.1022 46.8508 32.2578 45.4619 31.0966 43.5492C29.9353 41.6366 29.6052 39.428 30.1631 37.2535C30.7665 34.9196 32.1553 33.4282 34.1932 32.2441H34.1706Z" fill="#FFF4D4"/>
<path d="M45.4295 40.9312C44.7805 42.3884 44.1089 43.6521 43.1185 44.5971C39.6347 47.7848 33.9878 46.726 32.1093 42.2974C30.9594 39.121 31.062 35.8536 33.578 33.3944C33.874 33.0187 34.1017 32.6317 34.17 32.2787C34.2269 32.1193 34.4318 32.0624 34.5685 31.96C34.6026 31.9486 34.6253 31.9258 34.6595 31.9372C34.7164 31.96 34.8759 32.0966 34.8873 32.1535C34.8531 32.3129 34.6709 32.4495 34.5799 32.5975C33.134 34.3735 31.8703 36.1723 32.1663 38.5631C32.2915 39.7699 32.5761 40.9653 33.1568 42.0355C34.466 43.8457 36.5722 45.0752 38.8264 44.9956C41.2855 44.9614 43.2892 43.6977 44.2569 41.4663C44.4732 40.9767 44.6895 40.2822 45.0424 39.8838C45.1107 39.8269 45.2473 39.6333 45.2929 39.7927C45.3384 40.157 45.4067 40.5327 45.4409 40.897V40.9198L45.4295 40.9312Z" fill="#26D557"/>
<path d="M47.126 39.3604C47.0918 39.5995 47.0234 39.5768 46.9324 39.2921C46.5339 37.9032 46.1013 36.5142 45.384 35.2619C42.2874 29.6264 34.9556 27.1559 30.322 32.5296C29.73 33.1443 29.2289 33.8844 28.9215 34.6813C28.7963 34.9545 28.3865 36.1272 28.1588 35.8425C27.6693 34.2031 29.1152 32.04 30.1398 30.7763C31.745 28.727 34.2497 27.4975 36.8454 27.5089C42.9022 27.4406 47.2852 33.5884 47.1372 39.3491V39.3718L47.126 39.3604Z" fill="#CFB593"/>
<path d="M54.1963 48.0241C54.6745 46.897 55.3689 45.8837 56.4277 45.212C57.4865 44.4834 59.0349 44.324 60.0367 45.2234C61.8014 46.5782 62.0404 48.1721 61.5964 50.2213C61.6078 50.5629 61.6988 51.098 62.1201 51.1094C62.4844 51.1207 62.917 51.041 63.0764 50.654C63.2358 50.2669 63.3497 49.8229 63.5774 49.4927C63.9531 48.9349 64.3857 49.2536 64.3402 49.8229C64.3402 50.6084 64.0669 51.3029 63.6002 52.0429C62.8943 53.2042 61.7558 54.0694 60.3327 54.2857C59.7635 54.2743 59.2511 54.0011 58.7274 53.8189C58.477 53.7279 58.2379 53.7392 57.9988 53.8531C57.5662 54.0808 57.1335 54.3313 56.6895 54.5362C52.1356 56.927 47.8777 54.7183 44.9973 50.9955C44.8265 50.8475 44.5876 51.041 44.4168 51.2118C44.1777 51.4395 43.6653 51.7697 43.6426 51.2346C43.6767 50.0733 45.0884 49.2195 46.17 49.3903C46.3521 49.4244 46.6255 49.5724 46.5572 49.7887C46.4888 50.0392 46.3407 50.3124 46.5912 50.506C48.8909 52.7488 52.6252 53.8076 55.6422 52.4641C55.961 52.3389 56.3594 52.0429 55.8812 51.8038C54.2077 51.0069 53.331 49.8798 54.1621 48.0355V48.0013L54.1963 48.0241Z" fill="#241512"/>
<path d="M60.8098 47.6938C60.7529 47.8077 60.5708 48.0354 60.4911 48.1378C60.5139 48.468 60.5707 48.7412 60.6504 49.06C60.7301 49.3674 60.7871 49.6065 60.6278 49.9139C60.4342 50.2782 60.2178 50.4034 59.8421 50.54C59.455 50.4148 59.3868 50.3807 59.1933 49.9822C58.92 49.4471 58.8631 48.5022 58.7492 47.8988C58.6126 48.9462 58.6239 50.2554 57.679 50.9271C57.3602 51.1548 57.0074 51.1434 56.6431 51.0637C56.0055 50.9157 55.4135 50.4262 54.9354 49.9936C55.2541 49.9936 55.6867 50.0163 55.9941 49.9253C56.4153 49.8 56.4609 49.5382 56.6317 49.1852C56.2218 49.0259 55.8461 49.1169 55.4248 49.06C54.8442 48.9689 54.5596 48.4566 54.1953 48.0354C54.5027 47.3864 54.8214 46.7375 55.2996 46.191C56.0282 45.3713 57.1097 44.6086 58.2368 44.5972C58.6922 44.5972 59.3981 44.6769 59.7283 45.007C59.7283 45.0639 59.7283 45.1209 59.7511 45.1778C59.9105 45.9292 61.2424 46.8741 60.8212 47.6938H60.8098Z" fill="#E3A491"/>
<path d="M46.9316 51.6897C46.6697 51.3937 47.0455 50.9611 47.3756 51.1888C49.8917 52.8851 53.2388 53.8414 56.0508 52.2362C56.1191 52.1907 56.1077 52.0654 56.1419 51.9971C56.2443 51.7922 56.6429 51.9516 56.9389 52.0654C57.121 52.1337 57.212 52.3273 57.1437 52.498C56.768 53.3747 54.047 54.0805 53.2729 54.0691C51.383 54.2171 48.3547 53.295 46.9544 51.7011L46.9316 51.6897Z" fill="#CFB593"/>
<path d="M63.0189 50.8248C62.757 51.3371 62.3927 51.7811 61.9032 52.0999C61.3112 52.487 60.184 52.8399 59.4668 52.6464C59.1822 52.5667 59.2164 52.5211 59.0684 52.282C59.2505 51.2233 60.8102 51.2119 61.5502 50.1986C61.5843 50.1531 61.6186 50.1076 61.6413 50.062L61.869 50.8817C62.2788 51.0183 62.5976 50.8476 63.0075 50.8134L63.0189 50.8248Z" fill="#CFB593"/>
<path d="M1.23438 13.6191C1.30268 12.344 1.42786 11.1827 2.45249 10.2719C3.44297 9.3953 4.83198 9.28145 6.08431 9.40668C10.9342 9.89623 15.1579 13.2889 18.1066 16.9434C19.0174 18.0819 19.8941 19.3001 20.4975 20.6207C19.0744 20.0287 17.4692 19.3342 15.9436 20.0059C15.5451 20.1767 15.2605 20.393 14.9531 20.7004L14.8619 20.8939C14.9872 21.7933 15.7956 22.3284 16.49 22.8407C17.583 23.6605 18.767 24.3435 19.7461 25.3112C18.6417 25.4706 17.2642 25.482 16.5128 26.427L16.3648 26.9507C16.5925 28.5218 17.1731 29.0682 18.3572 30.0359L19.5297 30.9012C18.0952 32.1535 16.8201 32.3129 14.9758 32.3471C12.0271 31.812 9.20368 29.8766 7.15442 27.759C3.5682 24.0475 1.14332 18.8219 1.25717 13.6077L1.23438 13.6191Z" fill="#E3A491"/>
<path d="M1.23438 13.6191C1.30268 12.344 1.42786 11.1827 2.45249 10.2719C3.44297 9.3953 4.83198 9.28145 6.08431 9.40668C10.9342 9.89623 15.1579 13.2889 18.1066 16.9434C19.0174 18.0819 19.8941 19.3001 20.4975 20.6207C19.0744 20.0287 17.4692 19.3342 15.9436 20.0059C15.5451 20.1767 15.2605 20.393 14.9531 20.7004C14.714 19.9945 14.2814 19.4595 13.7918 18.913C11.3783 16.2148 7.48461 12.788 3.63655 12.6513C2.57776 12.6172 1.98577 12.8904 1.23438 13.6191Z" fill="#C67F6C"/>
<path d="M18.3448 30.0473C18.0033 30.0587 17.5933 30.0928 17.2632 29.979C16.5459 29.7399 16.25 28.9771 15.9426 28.3509C15.8629 28.0208 15.7605 27.6109 15.7832 27.258C15.806 26.7571 16.0906 26.4724 16.4207 26.1309C15.5668 24.981 14.5423 23.5921 14.3943 22.1462C14.326 21.5542 14.4853 21.3379 14.861 20.9053C14.9862 21.8047 15.7946 22.3398 16.4777 22.8521C17.5706 23.6718 18.7546 24.3549 19.7337 25.3226C18.6294 25.482 17.2519 25.4933 16.5005 26.4383L16.3525 26.962C16.5802 28.5217 17.1608 29.0796 18.3448 30.0473Z" fill="#C67F6C"/>
<path d="M66.4685 29.1938C67.9941 29.2622 69.2691 29.4215 70.3848 30.6056C71.8648 32.1767 72.2406 34.6016 72.1267 36.685C72.0584 37.9374 71.8193 39.4971 71.0906 40.5331C71.0451 40.59 71.011 40.6583 70.9654 40.7153C70.9427 40.7494 70.9086 40.7836 70.8858 40.8177C70.1913 42.275 69.1211 43.3338 67.5842 43.8802C66.514 44.2559 65.2048 44.347 64.1801 43.7892C63.3718 43.3452 63.1099 42.8898 62.8709 42.0359C62.8595 41.4325 62.7001 40.7836 62.609 40.1802C62.0284 37.8918 62.1536 35.4783 62.9733 33.2582C63.2237 32.4271 63.5994 31.7896 64.0776 31.0837C64.7037 30.1957 65.5463 29.7175 66.4685 29.2052V29.1938Z" fill="#15621B"/>
<path d="M70.2355 34.1006C69.3816 31.8806 68.5392 31.0609 66.5354 29.911C67.2299 29.6378 68.0155 29.763 68.6758 30.0704C69.9054 30.651 70.7706 31.9147 71.2146 33.1671C72.1254 35.7969 71.4992 38.2219 70.8958 40.8176C70.2013 42.2749 69.1312 43.3337 67.5943 43.8802C66.5241 44.2559 65.2149 44.3469 64.1902 43.7891C63.3819 43.3451 63.12 42.8897 62.881 42.0358C62.8696 41.4324 62.7102 40.7835 62.6191 40.1801C62.7671 40.3167 62.915 40.4533 63.0744 40.5899C63.86 41.2616 64.805 41.9561 65.898 41.8195C67.2186 41.6601 68.209 40.4875 68.9946 39.5198C69.2337 39.0416 69.4385 38.5521 69.6435 38.0625C69.9281 37.8007 70.2469 37.5844 70.5657 37.368C70.7023 36.184 70.5657 35.2391 70.2469 34.112L70.2355 34.1006Z" fill="#FFF4D4"/>
<path d="M63.8148 34.4994C63.4049 33.2243 64.5889 31.4597 65.9437 32.3591C66.8545 32.9852 66.8887 34.7271 65.9437 35.4216C65.1468 36.0819 64.0311 35.4785 63.8148 34.5336V34.4994Z" fill="#FFF4D4"/>
<path d="M70.5657 37.3452C70.3494 38.9504 69.7347 40.8176 68.4709 41.8877C67.6512 42.7985 66.4103 43.3108 65.1693 43.0262C64.361 42.8554 63.6096 42.5139 62.9152 42.0585C62.8127 41.9105 62.8581 41.7056 62.8126 41.5348C62.7784 41.1136 62.6419 40.6695 62.6191 40.2597C62.6191 40.2483 62.6418 40.2483 62.6646 40.2597C62.9264 40.4874 63.1998 40.7379 63.473 40.9428C65.6589 42.7757 67.4122 41.5348 68.8922 39.6108C69.2223 39.0984 69.4272 38.5064 69.6549 37.9372C70.0306 36.6507 69.9964 35.4781 70.2013 34.1916C70.2241 34.1005 70.2469 34.1347 70.2697 34.2144C70.5543 35.2618 70.6681 36.2181 70.5429 37.311V37.3452H70.5657Z" fill="#28DA5E"/>
<path d="M73.1183 12.1965C73.346 9.04288 72.5035 5.38836 73.3801 2.36001C73.5168 1.87046 73.6876 1.48338 74.1658 1.23291C74.6667 1.28983 74.7578 1.44922 75.1448 1.768C77.5698 3.97665 78.7538 7.14162 78.9245 10.3863C79.1295 14.2344 77.8657 18.0255 75.7481 21.2132C75.0081 22.7274 73.4143 24.3099 72.0026 25.2207L71.1602 23.5016C71.7294 23.0006 72.5035 22.4428 72.9019 21.7939C73.1638 21.3726 73.1866 21.088 73.0613 20.6212C72.7881 20.3366 72.5263 20.0861 72.3783 19.7104C72.7654 18.5606 73.8127 17.5929 74.3592 16.4658C74.3934 16.4088 74.4162 16.3405 74.4504 16.2836L73.6078 15.7713C73.2435 15.8282 72.9134 15.9079 72.5605 15.7941C72.4125 15.3159 72.5946 14.8947 72.7313 14.4279C72.959 13.6765 73.0386 12.982 73.0955 12.2079L73.1183 12.1965Z" fill="#E3A491"/>
<path d="M74.4714 16.2715C75.1203 16.8749 75.2457 17.6377 75.2684 18.4915C75.2912 19.3112 75.1774 20.1992 75.4278 20.9848L75.7579 21.2125C75.0179 22.7267 73.4241 24.3092 72.0124 25.2199L71.1699 23.5008C71.7392 22.9999 72.5132 22.442 72.9117 21.7931C73.1735 21.3719 73.1963 21.0873 73.0711 20.6205C72.7979 20.3359 72.536 20.0854 72.388 19.7097C72.7751 18.5598 73.8225 17.5921 74.369 16.465C74.4031 16.4081 74.4259 16.3398 74.46 16.2829L74.4714 16.2715Z" fill="#C67F6C"/>
<path d="M75.1444 1.76735C74.985 2.07474 74.9167 2.32521 74.8483 2.66675C74.6662 3.50923 74.3246 4.28339 74.1993 5.14864C73.8578 7.30037 73.9716 9.48625 73.7553 11.638V11.8315C73.7212 12.5601 73.1975 15.0079 73.3569 15.4405C73.4024 15.5771 73.5504 15.6568 73.6415 15.7707C73.2886 15.8276 72.9471 15.9073 72.5942 15.7934C72.4462 15.3153 72.6282 14.894 72.7648 14.4273C72.9925 13.6759 73.0723 12.9814 73.1292 12.2072C73.3569 9.05363 72.5144 5.3991 73.3911 2.37075C73.5277 1.86982 73.6984 1.49412 74.1765 1.24365C74.6775 1.31196 74.7687 1.45996 75.1558 1.77874L75.1444 1.76735Z" fill="#D69280"/>
<path d="M6.77734 8.13232C12.7771 8.29171 21.589 12.5952 25.7103 16.9897C26.0974 17.4109 26.4503 17.8663 26.7577 18.3445C28.8298 20.7353 27.6913 24.1394 28.5907 25.6763C27.8848 27.236 26.8487 28.8185 25.2549 29.5813C25.2549 29.3081 25.2322 29.0462 25.198 28.773C24.4125 22.7163 21.4524 16.8872 16.7618 12.9026C15.5095 11.8324 13.984 11.1038 12.6747 10.1133L12.5608 10.0222C10.6595 9.24804 8.7583 8.65603 6.77734 8.15509V8.13232Z" fill="#010801"/>
<path d="M6.77734 8.13232C12.7771 8.29171 21.589 12.5952 25.7103 16.9897C26.0974 17.4109 26.4503 17.8663 26.7577 18.3445C25.9722 18.151 24.9589 17.206 24.2872 16.7278C21.3044 14.5989 16.1698 10.489 12.5608 10.0108C10.6595 9.23665 8.7583 8.64464 6.77734 8.14371V8.13232Z" fill="#717978"/>
<path d="M72.5114 1.18701L71.5665 4.01044C71.8511 4.98954 71.6575 6.11663 71.6234 7.12988C71.4981 10.7958 71.4298 15.3725 69.5058 18.6399C69.2553 19.0611 69.0505 19.2205 68.5951 19.3572C67.8665 18.8904 67.2858 18.1276 66.728 17.4673C65.396 15.9076 63.3125 14.678 61.582 13.5623L61.6276 13.3232C61.8439 13.2094 62.026 13.0841 62.2765 13.0841C64.1322 11.9456 65.7602 10.5909 67.2402 9.00837C67.9461 8.21143 68.5722 7.36896 69.1984 6.5151C70.2686 4.73907 71.2363 2.83781 72.5114 1.18701Z" fill="url(#paint0_linear_58_458)"/>
<path d="M67.2414 9.00797L67.9131 9.72521C66.6152 11.1938 64.862 12.8219 62.8469 13.0951C62.6534 13.1179 62.4826 13.0951 62.2891 13.0723C64.1448 11.9339 65.7728 10.5791 67.2528 8.99658L67.2414 9.00797Z" fill="#717978"/>
<path d="M72.5122 1.18701L71.5673 4.01044L70.3037 6.62895L69.1992 6.5151C70.2694 4.73907 71.2371 2.83781 72.5122 1.18701Z" fill="#3DA059"/>
<path d="M69.1886 6.51562L70.2931 6.62947C69.553 7.72241 68.7561 8.72428 67.9023 9.73752L67.2305 9.02028C67.9363 8.22335 68.5625 7.38087 69.1886 6.52701V6.51562Z" fill="#659978"/>
<path d="M97.0703 50.5283V12.3664C97.0703 12.0363 97.332 11.7744 97.6622 11.7744H116.447C124.155 11.7744 128.299 15.9185 128.299 22.4989C128.299 25.4134 126.75 27.9408 124.576 29.2956C124.177 29.5461 124.2 30.1153 124.61 30.3316C127.399 31.7434 129.494 34.396 129.494 39.3939C129.494 46.5664 124.69 51.1317 114.796 51.1317H97.6736C97.3434 51.1317 97.0816 50.8698 97.0816 50.5397L97.0703 50.5283ZM105.017 19.1859V26.5291C105.017 26.8593 105.279 27.1211 105.609 27.1211H115.388C118.644 27.1211 120.364 25.6411 120.364 22.8518C120.364 19.8349 118.758 18.5825 114.91 18.5825H105.609C105.279 18.5825 105.017 18.8444 105.017 19.1745V19.1859ZM115.445 44.426C119.236 44.426 121.491 42.0011 121.491 38.8019C121.491 35.3637 119.237 33.8268 115.571 33.8268H105.62C105.29 33.8268 105.028 34.0886 105.028 34.4188V43.834C105.028 44.1642 105.29 44.426 105.62 44.426H115.457H115.445Z" fill="white"/>
<path d="M180.92 50.7559L175.102 38.8588C174.909 38.449 174.362 38.3693 174.043 38.6881L171.14 41.6823C171.026 41.8075 170.958 41.9669 170.958 42.1377V50.4599C170.958 50.8243 170.662 51.1089 170.309 51.1089H163.854C163.49 51.1089 163.205 50.8129 163.205 50.4599V11.9566C163.205 11.5922 163.501 11.3076 163.854 11.3076H170.309C170.673 11.3076 170.958 11.6036 170.958 11.9566V31.2993C170.958 31.9027 171.709 32.1873 172.108 31.7319L180.362 22.2029C180.487 22.0549 180.669 21.9752 180.852 21.9752H188.491C189.06 21.9752 189.356 22.6469 188.969 23.0681L180.499 32.3695C180.316 32.5744 180.271 32.8704 180.396 33.1095L189.231 50.1753C189.458 50.6079 189.14 51.1316 188.65 51.1316H181.478C181.227 51.1316 181 50.995 180.886 50.7673L180.92 50.7559Z" fill="white"/>
<path d="M191.826 51.1204V11.2964H199.534V51.1204H191.826Z" fill="white"/>
<path d="M210.406 38.5628C210.098 38.5628 209.859 38.8361 209.882 39.1435C210.303 43.1965 212.728 45.7922 216.36 45.7922C218.705 45.7922 220.789 44.6879 221.46 42.8777C221.54 42.6728 221.734 42.5361 221.95 42.5361H228.792C229.145 42.5361 229.407 42.8891 229.282 43.2306C227.346 48.7864 222.679 51.9058 216.702 51.9058C206.979 51.9058 202.129 46.5777 202.129 36.024C202.129 27.0187 207.286 21.2124 216.235 21.2124C225.183 21.2124 229.783 26.8479 229.919 38.0505C229.919 38.3351 229.692 38.5742 229.396 38.5742H210.394L210.406 38.5628ZM221.438 33.7015C221.745 33.7015 221.984 33.4397 221.961 33.1323C221.62 29.1931 218.899 27.2919 216.007 27.2919C213.115 27.2919 210.633 29.4322 210.144 33.0981C210.098 33.4055 210.349 33.6901 210.656 33.6901H221.438V33.7015Z" fill="white"/>
<path d="M273.945 50.8814L271.599 43.2422C271.554 43.1055 271.429 43.0031 271.281 43.0031H257.255C257.107 43.0031 256.981 43.0942 256.936 43.2308L254.306 50.8927C254.26 51.0294 254.135 51.1204 253.987 51.1204H245.995C245.767 51.1204 245.596 50.8927 245.676 50.665L259.475 11.9909C259.52 11.8543 259.645 11.7632 259.793 11.7632H268.856C269.004 11.7632 269.129 11.8543 269.174 11.9909L282.802 50.665C282.882 50.8814 282.711 51.1091 282.483 51.1091H274.263C274.115 51.1091 273.979 51.018 273.945 50.87V50.8814ZM264.233 20.6092H264.176L259.281 35.8079C259.213 36.0242 259.372 36.2519 259.6 36.2519H268.696C268.924 36.2519 269.083 36.0356 269.015 35.8079L264.233 20.5978V20.6092Z" fill="white"/>
<path d="M285.146 17.9907V11.7745C285.146 11.5127 285.363 11.2964 285.625 11.2964H292.376C292.638 11.2964 292.854 11.5127 292.854 11.7745V17.9907C292.854 18.2525 292.638 18.4688 292.376 18.4688H285.625C285.363 18.4688 285.146 18.2525 285.146 17.9907ZM285.146 50.6423V16.8749C285.146 16.6131 285.363 16.3968 285.625 16.3968H292.376C292.638 16.3968 292.854 16.6131 292.854 16.8749V50.6423C292.854 50.9041 292.638 51.1204 292.376 51.1204H285.625C285.363 51.1204 285.146 50.9041 285.146 50.6423Z" fill="white"/>
<path d="M145.605 21.2017C136.361 21.2017 130.611 27.3039 130.611 36.5484C130.611 45.7928 136.179 51.8951 145.605 51.8951C155.032 51.8951 160.417 45.7928 160.417 36.5484C160.417 27.3039 154.724 21.2017 145.605 21.2017ZM151.844 38.1081C152.527 39.7589 151.764 41.1023 150.398 42.07C147.21 44.3697 141.609 43.2654 140.083 39.4743C139.765 38.5179 140.254 37.6527 139.104 37.129C137.704 36.4573 136.042 33.5428 137.613 32.3815C138.706 31.6871 140.539 32.5978 141.643 33.3948C142.315 33.9868 142.873 33.8388 143.624 33.4745C144.979 32.8938 146.516 32.8028 147.939 33.1102C148.235 33.1671 148.554 33.2126 148.85 33.1671C150.034 33.0191 150.512 31.6757 151.309 30.9584C152.322 30.3323 152.971 31.892 153.005 32.7003V32.7458C153.085 33.7363 152.607 34.8634 151.924 35.6604C151.366 36.3776 151.65 37.3225 151.844 38.1195V38.1081Z" fill="white"/>
<defs>
<linearGradient id="paint0_linear_58_458" x1="73.7632" y1="14.7093" x2="69.7466" y2="2.67638" gradientUnits="userSpaceOnUse">
<stop stop-color="#1D1A1C"/>
<stop offset="1" stop-color="#424546"/>
</linearGradient>
</defs>
</svg>
