<svg width="204" height="158" viewBox="0 0 204 158" fill="none" xmlns="http://www.w3.org/2000/svg">
<path d="M203.101 25.8098C202.826 15.6146 194.938 -4.27629 182.401 0.821302C179.99 2.02681 178.509 4.78224 177.079 7.03827C175.564 9.51818 174.152 12.067 172.567 14.478C168.606 20.5228 163.595 25.2243 157.894 29.1164C154.829 31.3724 151.23 33.749 147.234 32.4229C141.551 30.7352 135.868 29.7019 130.047 28.8064C124.76 28.307 119.18 28.2553 113.911 28.2725C102.407 28.6342 90.9198 31.5618 80.5007 36.5216C78.038 37.6583 75.4721 38.9155 73.0438 40.2243C71.3906 41.1371 69.3412 41.8259 67.6879 40.7237C65.7763 39.4493 64.1747 37.5033 62.2631 36.0567C50.1563 26.5504 34.3468 18.7662 18.8818 17.5435C11.3559 17.4057 3.14121 21.8316 0.764626 29.2541C-2.30082 44.013 4.17458 59.3231 14.4042 71.0854C19.6396 76.8891 26.4937 81.8834 33.9334 84.2255C40.4432 85.9477 37.8084 89.1681 37.4812 94.2485C36.6546 103.359 38.6005 113.106 44.2836 120.649C46.1263 122.63 48.4169 123.37 49.9324 125.488C51.379 127.658 52.4466 130.224 54.1516 132.274C59.9036 139.765 69.2033 145.345 77.883 149.185C103.509 160.018 136.523 161.705 161.029 148.29C175.753 140.506 194.714 124.524 191.735 104.891C191.115 99.4149 187.378 94.5757 186.362 89.1164C185.707 84.4321 185.656 79.4379 184.709 74.7709C184.399 72.1532 182.47 69.0705 184.313 66.7456C184.864 66.0223 185.69 65.3851 186.448 64.7995C188.893 62.9224 191.081 60.6319 192.82 58.2553C199.45 48.8696 203.893 37.1933 203.118 25.982V25.827L203.101 25.8098Z" fill="#010801"/>
<path d="M109.95 31.8029C115.961 31.0968 121.661 31.9407 127.602 31.7513L129.221 32.1646L129.927 32.0268L133.217 32.5607C134.922 32.9223 137.35 33.7662 139.038 33.6801L142.069 34.3173C156.638 38.1749 167.712 46.4413 175.289 59.547C176.787 62.1474 178.286 64.9028 179.233 67.7444C180.369 70.3276 181.058 73.0142 181.696 75.7697C178.062 71.9637 174.979 69.4493 169.485 69.2943H168.9C164.698 70.3621 161.718 72.1015 159.462 75.9591C157.757 78.8868 156.793 82.245 155.794 85.4654C154.933 92.6985 154.434 104.754 159.015 111.005C160.771 113.416 164.491 114.329 167.281 114.622C171.225 115.035 174.807 114.071 177.838 111.453C182.626 107.354 184.244 101.774 185.467 95.8845L187.051 100.069C189.514 105.339 189.394 111.935 187.43 117.325C182.315 131.292 167.298 141.918 154.313 147.859C133.458 157.383 104.405 155.747 83.2224 147.722C72.5278 143.674 58.3029 135.959 53.4636 124.937C52.6886 123.164 51.4659 118.651 50.0365 117.549C49.2443 118.273 48.5898 119.874 47.6082 119.978C46.816 119.099 46.2822 118.169 45.7139 117.153C44.8356 115.707 44.1294 114.26 43.475 112.693C40.0996 105.322 39.7552 96.5217 41.6324 88.7375C45.3522 88.5137 47.6771 87.842 50.8114 85.7754C47.5565 85.4826 44.3878 84.8627 41.2018 84.1394C41.1674 83.8811 41.15 83.5711 41.0467 83.33C40.4612 82.1589 39.0835 82.1933 37.9297 81.9178C42.5967 81.8489 45.8343 81.4184 49.4508 78.2496C50.1569 78.129 50.8114 77.6468 51.4486 77.2852L50.5013 75.5114C49.0892 75.098 47.8149 73.2209 46.9365 72.1187C46.3682 71.6882 45.7309 70.8098 45.5415 70.1037C45.3865 69.5354 45.6622 69.3116 45.9205 68.8294C50.1915 66.2633 52.809 69.2255 56.9422 69.9488L57.5966 69.3977L57.6828 67.4861L58.0272 67.2278C60.0249 69.5871 60.5244 74.0647 63.5554 75.3219L64.0204 74.8397C68.0675 72.9109 70.7023 68.9155 72.4761 64.9545C72.9239 64.1451 73.3201 63.3701 73.6473 62.5091C76.1272 55.9304 74.8871 50.54 72.0283 44.3747C74.9216 42.8419 77.8494 41.3609 80.7943 39.9488C82.2925 39.1738 83.9285 38.571 85.4785 37.9166C86.2362 37.486 86.925 37.2622 87.7517 37.0038L91.5405 35.3506C93.1766 35.1267 94.8469 34.4378 96.5519 34.1795C100.943 33.1462 105.438 31.9063 109.985 31.7685L109.95 31.8029Z" fill="#FFF4D4"/>
<path d="M109.884 31.7343C115.516 31.1316 120.992 31.786 126.572 31.7343C127.967 31.7343 129.069 32.1132 130.533 32.096C132.858 32.3716 135.131 33.0604 137.456 33.5081C138.834 33.6459 140.315 33.8526 141.641 34.1798C142.071 34.2831 142.192 34.352 142.347 34.5759C142.76 35.2992 144.31 38.1235 145.12 39.5874C147.29 43.8067 148.891 48.336 149.649 53.0202C150.407 59.5128 151.027 68.003 149.494 74.8916C148.719 82.228 148.013 90.1156 146.256 97.2625C146.067 98.4853 144.551 98.7436 143.845 97.7447C143.174 96.8837 142.846 95.7987 142.691 94.731C142.45 92.9916 142.02 91.3038 141.537 89.5989C135.252 66.367 117.686 48.0604 94.4191 41.5334C91.4915 40.6379 88.3918 39.794 85.7741 38.2441C84.8613 37.5724 87.6512 37.073 88.0817 36.763C88.7189 36.4875 89.9071 35.9708 90.596 35.6781C92.2837 35.0753 93.9886 34.7825 95.7452 34.3176C100.378 33.2843 105.045 31.9582 109.815 31.7688H109.901L109.884 31.7343Z" fill="#010801"/>
<path d="M109.952 31.8029C115.962 31.0968 121.663 31.9407 127.604 31.7513L129.223 32.1646C129.705 34.3173 130.394 36.4183 131.066 38.5193C132.461 40.827 133.167 43.2381 133.787 45.8385C131.117 46.9751 128.586 47.7501 125.727 48.3184C122.334 46.0107 118.287 42.6698 114.189 41.9465C113.655 42.1015 113.276 42.222 112.794 42.532C110.572 41.912 108.35 40.6376 106.094 39.9143C101.341 38.3643 95.9338 37.6927 91.5078 35.4022C93.1439 35.1784 94.8144 34.4895 96.5194 34.2312C100.911 33.1979 105.406 31.9579 109.952 31.8202V31.8029Z" fill="#010801"/>
<path d="M109.953 31.8029C115.963 31.0968 121.663 31.9407 127.605 31.7513L129.224 32.1646C129.706 34.3173 130.395 36.4183 131.066 38.5193C128.862 38.1577 124.849 36.9866 122.869 38.2094L122.593 38.7605C122.576 39.3288 122.507 39.6732 122.352 40.1898C121.147 40.2587 120.372 39.2943 119.425 38.5882C118.064 37.7444 116.79 36.8317 115.515 35.8672C114.069 34.6445 112.726 34.6273 111.176 33.8006C110.263 33.3012 110.228 32.7157 109.936 31.8029H109.953Z" fill="#424947"/>
<path d="M115.514 35.8847C116.323 35.127 116.289 35.0581 117.391 35.0581L119.079 36.2119L122.592 38.7779C122.575 39.3462 122.506 39.6907 122.351 40.2073C121.145 40.2762 120.37 39.3118 119.423 38.6058C118.063 37.7619 116.788 36.8491 115.514 35.8847Z" fill="#2EBF58"/>
<path d="M96.5215 34.2313C100.913 33.198 105.408 31.9581 109.954 31.8203C110.247 32.7331 110.281 33.3186 111.194 33.818C112.727 34.6619 114.07 34.6619 115.534 35.8846C116.808 36.849 118.083 37.779 119.443 38.6056C112.692 41.7572 104.082 36.539 97.3308 35.058C97.1759 35.0235 97.0381 34.9891 96.8831 34.9718L96.5215 34.2313Z" fill="#010801"/>
<path d="M129.224 32.1822L129.93 32.0444L133.22 32.5783C133.977 33.8355 134.356 34.5932 134.494 36.057C134.511 36.2981 134.546 36.5393 134.58 36.7804L134.632 37.3142L135.166 39.2775C135.837 41.7402 137.387 46.0111 135.734 48.3188C133.719 51.1432 128.656 51.2293 125.487 51.6426C121.94 50.1615 118.823 47.4405 115.464 45.5462C107.938 41.2752 96.3484 37.917 87.7031 37.0731L91.4918 35.4199C95.9177 37.7275 101.325 38.3992 106.078 39.9319C108.334 40.6552 110.556 41.9296 112.778 42.5496C113.26 42.2568 113.639 42.1363 114.173 41.964C118.271 42.6873 122.301 46.0284 125.711 48.3361C128.57 47.7677 131.102 46.9928 133.771 45.8561C133.134 43.2557 132.427 40.8447 131.05 38.537C130.378 36.4359 129.689 34.3349 129.207 32.1822H129.224Z" fill="#2EBF58"/>
<path d="M129.222 32.1822L129.928 32.0444C131.668 35.2477 136.042 42.1707 135.078 45.8906C134.75 47.1477 133.838 48.0261 132.736 48.646C130.772 49.7654 127.793 50.1788 125.589 50.5577C121.369 47.785 117.167 45.064 112.793 42.5324C113.275 42.2396 113.654 42.1191 114.188 41.9469C118.287 42.6702 122.317 46.0111 125.726 48.3188C128.585 47.7505 131.117 46.9755 133.786 45.8389C133.149 43.2384 132.443 40.8274 131.065 38.5197C130.393 36.4187 129.705 34.3176 129.222 32.1649V32.1822Z" fill="#242625"/>
<path d="M139.057 33.6982L142.088 34.3354L145.549 40.6385C146.772 43.3596 147.788 46.0461 148.632 48.9049L149.372 52.1253C150.233 58.7901 150.922 68.7097 149.2 75.2884L149.252 76.6833C148.132 83.6581 147.805 91.4422 145.825 98.1931C145.429 93.5605 146.428 88.2735 146.824 83.6236C147.116 80.231 147.185 76.8383 147.547 73.4629C147.581 71.7235 147.771 70.053 148.012 68.3309C148.063 64.0943 148.236 59.8234 147.84 55.6041L147.065 50.2138C146.393 47.665 145.308 45.2023 144.309 42.7568L142.363 39.278C141.347 37.3664 139.78 35.7821 139.057 33.7155V33.6982Z" fill="#28DA5E"/>
<path d="M133.216 32.5781C134.921 32.9398 137.349 33.7836 139.037 33.6975C139.76 35.7641 141.328 37.3485 142.344 39.2601C141.379 41.12 140.983 42.6872 140.639 44.7366C139.347 42.7561 136.884 37.8652 134.594 37.3141L134.542 36.7802C134.508 36.5391 134.49 36.298 134.456 36.0569C134.335 34.593 133.939 33.8353 133.182 32.5781H133.216Z" fill="#424947"/>
<path d="M50.8325 85.9646C51.8486 85.7235 52.9335 85.9646 54.0185 85.9646C55.7578 86.1024 58.1172 85.4996 59.1505 87.2045C60.5282 89.7017 64.2137 97.813 65.4881 101.326C65.7464 102.084 66.0219 102.601 65.6086 102.893C64.8853 103.393 63.5076 102.893 62.8876 103.048C62.3365 103.221 62.5604 103.961 62.6637 104.426C63.7315 108.577 64.6959 112.641 66.5041 116.533C66.7108 117.05 67.0379 117.876 66.4179 118.152C65.9357 118.393 64.9715 118.014 64.4376 118.203C63.146 118.703 65.0059 122.87 65.4709 123.938C75.115 142.124 97.6407 149.22 117.015 149.788C120.89 149.839 125.04 150.218 128.932 149.547C130.396 149.288 131.722 148.858 132.825 148.203C133.393 147.893 133.961 147.635 134.598 147.515C135.907 147.291 137.285 147.601 138.611 147.411C141.332 147.067 143.571 145.569 146.034 144.811C147.825 144.139 147.756 146.257 149.288 146.085C157.159 144.845 172.641 134.03 176.981 129.105C182.13 123.508 187.21 116.068 187.469 108.766C187.52 106.458 186.918 104.099 186.935 101.791C186.935 100.104 187.4 100.741 187.727 101.791C193.875 122.199 172.727 138.8 156.521 146.826C132.222 158.709 98.9667 155.953 74.8048 144.087C66.5901 139.885 58.3239 134.34 54.0185 126.16C53.1918 124.644 52.5891 122.578 51.8485 120.769C51.3835 119.839 51.1081 118.617 50.2298 118.083C49.3687 117.859 48.8693 119.237 48.0771 119.461C47.3538 119.719 46.8198 118.996 46.4409 118.41C40.9989 110.092 39.0702 99.4491 41.3779 89.7533C41.6879 88.8578 42.5661 88.565 43.4271 88.4617C45.6143 88.1861 47.3882 87.6178 49.3342 86.5156C49.7648 86.2745 50.2296 86.0679 50.7118 85.9473H50.798L50.8325 85.9646Z" fill="#CFB593"/>
<path d="M55.789 86.1031C56.9773 86.0342 57.7178 85.9309 58.7683 86.6026C59.836 88.1353 65.9841 101.62 66.0013 103.049C65.123 103.428 64.1758 103.359 63.2631 103.084C63.1942 103.066 63.1426 103.015 63.0909 102.998C63.0048 102.963 62.3332 102.808 62.2298 102.774C63.6248 107.975 64.6064 113.021 67.138 117.825L67.0862 118.463C65.9152 118.463 65.0025 118.204 63.9003 117.877C62.3848 117.136 61.0415 116.448 59.7843 115.294C58.7166 114.312 57.7006 113.176 56.254 112.814L55.789 113.382C55.6512 116.206 56.3572 118.755 57.2183 121.407C56.0472 120.546 54.945 119.702 53.9806 118.618C49.7786 113.985 46.5065 108.216 46.8853 101.775C47.2814 95.1445 51.1047 90.3397 55.789 86.0687V86.1031Z" fill="#010801"/>
<path d="M55.0501 93.8184C56.3934 96.4016 55.5668 99.8459 56.4451 102.601C57.3234 105.391 60.6472 107.871 60.5094 110.799C58.5806 109.163 56.8929 106.89 55.8079 104.599C54.1202 101.034 53.6379 97.5382 55.0501 93.8355V93.8184Z" fill="#28DA5E"/>
<path d="M41.6171 88.772C42.5643 88.8581 44.0281 88.7892 44.8203 89.3058C44.0281 95.7812 41.9269 104.822 44.6652 111.108C44.2863 111.987 44.2175 112.176 43.4598 112.744C40.0843 105.374 39.74 96.5733 41.6171 88.7892V88.772Z" fill="#FFF4D4"/>
<path d="M137.663 147.566C141.451 147.428 144.172 144.949 147.668 144.397L147.617 145.138C144 147.549 139.781 150.511 135.131 149.392C134.304 149.185 133.977 148.961 133.374 148.376L133.254 147.98C134.718 147.704 136.216 147.876 137.663 147.549V147.566Z" fill="#241512"/>
<path d="M44.649 111.109C45.6479 112.624 46.5606 113.417 46.5606 115.294C46.44 115.432 46.3021 115.569 46.1815 115.707C45.6304 116.361 45.7511 116.413 45.6823 117.205C44.8039 115.759 44.0978 114.312 43.4434 112.745C44.1839 112.177 44.2701 111.97 44.649 111.109Z" fill="#EAC1AF"/>
<path d="M85.2045 37.8999C85.4628 37.9171 85.704 38.0377 85.9451 38.1755C87.5984 39.071 89.4239 39.777 91.301 40.397C117.375 46.8034 137.317 67.5383 142.621 93.9562C142.707 94.5245 143.086 96.3672 142.484 95.0239C141.347 92.5612 140.314 90.0986 139.263 87.6703C137.076 82.5727 134.803 77.4751 131.772 72.7392C119.613 53.141 102.099 45.0468 80.9336 39.6392C82.0186 38.9676 83.3273 38.5715 84.4984 38.0377C84.705 37.9515 84.9289 37.8999 85.1356 37.8999H85.2045Z" fill="#28DA5E"/>
<path d="M57.5635 69.4658L57.6494 67.5542L57.994 67.2959C59.9917 69.6553 60.4911 74.1328 63.5221 75.39C63.6943 76.6472 64.0043 77.8527 63.5221 79.0755C62.7126 79.6438 62.351 79.7299 61.3694 79.506C58.6828 78.9032 52.7584 74.3223 50.4852 75.5795C49.073 75.1662 47.7987 73.289 46.9204 72.1868C46.3521 71.7563 45.7148 70.878 45.5254 70.1719C45.3704 69.6036 45.6461 69.3797 45.9044 68.8975C50.1754 66.3315 52.7931 69.2936 56.9263 70.0169L57.5805 69.4658H57.5635Z" fill="#CFB593"/>
<path d="M159.428 71.8773C160.84 69.1563 163.2 66.7109 166.093 65.5053C170.691 63.5765 174.893 66.4181 177.614 67.2964C179.009 67.6408 179.956 68.7258 180.421 70.0863C180.869 71.4812 182.126 75.0117 181.696 75.7866C181.489 76.0277 180.68 74.7361 179.939 74.1506C170.106 64.627 159.893 71.0679 156.277 83.8119C155.278 86.929 155.605 84.1736 155.794 82.8992C156.38 79.0932 157.62 75.4077 159.359 71.9462L159.394 71.8773H159.428Z" fill="#CFB593"/>
<path d="M51.431 77.3364C51.431 78.6625 51.1211 79.3169 50.1911 80.2813C47.7973 82.7612 44.4564 83.5879 41.1843 84.1906C41.1498 83.9323 41.1324 83.6223 41.0291 83.3812C40.4436 82.2102 39.066 82.2446 37.9121 81.969C42.5792 81.9002 45.8167 81.4696 49.4333 78.3008C50.1393 78.1803 50.7938 77.6981 51.431 77.3364Z" fill="#010801"/>
<path d="M74.7337 80.1268C81.4329 69.57 96.4674 67.2451 106.594 74.2887C115.153 80.1096 120.009 90.632 119.097 100.931C119.338 104.048 119.837 107.578 118.701 110.575C117.702 113.623 115.876 111.918 115.514 109.645C115.394 109.455 115.308 105.391 115.118 106.751C114.877 108.973 114.447 112.004 115.997 113.52C116.375 113.916 117.133 113.933 117.512 114.346C118.046 115.552 115.187 116.551 114.378 117.015C109.917 119.495 105.388 122.13 100.428 123.353C80.7095 127.693 70.0838 110.316 71.7887 92.5091C71.9265 91.6136 71.2376 90.942 71.1515 90.0809C70.7899 86.5505 72.6154 82.7273 74.6475 80.2129L74.6993 80.144L74.7337 80.1268Z" fill="#010801"/>
<path d="M87.7487 80.885C91.6752 78.8701 97.3756 79.4557 101.509 81.0228C107.002 83.1928 110.946 87.9115 113.099 93.319C113.908 95.4373 114.77 97.8828 114.615 100.001C114.373 101.052 113.392 101.809 113.03 102.86C112.479 104.083 112.066 105.236 111.428 106.39C106.675 115.621 93.0187 116.327 86.1645 109.008C85.6134 108.474 85.1139 107.906 84.6317 107.355C84.3906 107.131 84.1151 106.907 83.7706 106.924C83.3401 106.924 83.0645 107.51 82.6857 107.63C82.4618 107.699 82.2034 107.665 81.9968 107.544C81.4801 107.234 81.1357 106.649 80.9635 106.063C79.1552 100.5 78.7936 93.7496 81.8591 88.6864C83.0646 86.6198 85.3032 84.8116 86.2332 82.6589C86.526 81.9183 86.9909 81.2984 87.7142 80.9367L87.7832 80.9023L87.7487 80.885Z" fill="#15621B"/>
<path d="M98.4459 86.3958C101.994 84.9664 105.989 88.1696 105.438 91.9412C105.007 96.0227 99.7891 97.9515 96.7925 95.1616C93.9337 92.6989 94.7949 87.7218 98.3597 86.4302L98.4459 86.3958Z" fill="#FFF4D4"/>
<path d="M86.5454 81.6592C86.3387 83.6741 83.6349 86.0851 82.4467 87.7556C78.4857 93.2493 79.1057 101.12 81.3617 107.216L82.7567 108.06C83.0495 107.095 83.1183 107.078 83.9622 106.493C84.7027 107.457 85.4777 108.335 86.356 109.179C89.6281 112.382 93.9161 114.122 98.4971 113.984C104.576 113.812 109.467 110.815 111.982 105.27C112.584 103.944 113.204 101.843 114.272 100.844C114.393 100.741 114.53 100.655 114.651 100.568C114.806 101.585 114.927 102.618 115.099 103.634L115.219 106.045C115.013 108.163 114.358 111.521 115.788 113.312C115.943 113.502 116.149 113.657 116.339 113.829C114.617 114.501 112.877 115.138 111.189 115.896C104.886 118.892 99.1344 121.493 91.953 119.891C86.3732 118.651 81.6889 115.138 78.744 110.281C75.7991 105.442 74.9552 99.8279 76.3846 94.3343C77.9173 88.4272 81.4306 84.6385 86.5799 81.6592H86.5454Z" fill="#FFF4D4"/>
<path d="M115.068 103.669C113.414 107.354 111.727 110.557 109.212 112.951C100.378 121.028 86.0837 118.341 81.3306 107.13C78.4201 99.0875 78.6785 90.804 85.0332 84.5698C85.7738 83.6226 86.3765 82.6409 86.5315 81.7454C86.6693 81.3493 87.1859 81.1943 87.5303 80.9532C87.5992 80.9188 87.6853 80.8843 87.7714 80.9016C87.9092 80.9532 88.3227 81.3149 88.3571 81.4527C88.2538 81.866 87.8059 82.2104 87.582 82.5892C83.931 87.1013 80.7279 91.6478 81.4685 97.6926C81.7785 100.758 82.5189 103.772 83.9655 106.493C87.2893 111.091 92.6279 114.208 98.3283 114.001C104.545 113.898 109.626 110.729 112.088 105.063C112.622 103.824 113.191 102.067 114.086 101.051C114.258 100.913 114.603 100.431 114.706 100.81C114.827 101.722 114.999 102.67 115.085 103.6V103.669H115.068Z" fill="#26D557"/>
<path d="M119.371 99.6739C119.302 100.294 119.112 100.208 118.871 99.5017C117.855 95.9885 116.77 92.4581 114.945 89.2893C107.109 75.0126 88.5268 68.7611 76.7989 82.3834C75.2834 83.9506 74.0263 85.7933 73.2514 87.8255C72.9414 88.5143 71.8909 91.4765 71.3053 90.7531C70.0654 86.6027 73.7334 81.1263 76.3167 77.923C80.381 72.7393 86.7359 69.6395 93.2973 69.6567C108.625 69.4845 119.732 85.0528 119.371 99.6395V99.6912V99.6739Z" fill="#CFB593"/>
<path d="M137.283 121.632C138.489 118.773 140.245 116.224 142.932 114.502C145.619 112.659 149.528 112.263 152.06 114.536C156.52 117.981 157.14 121.993 156.02 127.194C156.055 128.038 156.279 129.416 157.329 129.45C158.259 129.485 159.361 129.278 159.74 128.296C160.154 127.315 160.446 126.213 161.015 125.352C161.962 123.922 163.064 124.731 162.961 126.178C162.944 128.159 162.255 129.932 161.084 131.792C159.275 134.737 156.399 136.924 152.817 137.458C151.388 137.424 150.079 136.752 148.753 136.27C148.133 136.029 147.496 136.063 146.927 136.356C145.825 136.942 144.723 137.562 143.621 138.095C132.1 144.157 121.284 138.543 114 129.123C113.552 128.761 112.984 129.244 112.536 129.674C111.933 130.26 110.642 131.086 110.59 129.743C110.676 126.798 114.258 124.645 116.996 125.093C117.461 125.179 118.15 125.558 117.978 126.109C117.789 126.729 117.444 127.418 118.064 127.935C123.885 133.618 133.34 136.287 140.986 132.895C141.795 132.567 142.811 131.81 141.606 131.224C137.369 129.192 135.165 126.35 137.249 121.683L137.283 121.614V121.632Z" fill="#241512"/>
<path d="M154.02 120.804C153.882 121.08 153.4 121.683 153.21 121.941C153.262 122.768 153.4 123.474 153.606 124.266C153.813 125.058 153.951 125.661 153.538 126.436C153.038 127.349 152.504 127.693 151.557 128.037C150.575 127.71 150.403 127.641 149.904 126.642C149.215 125.282 149.06 122.888 148.767 121.355C148.423 123.99 148.44 127.331 146.063 129.036C145.254 129.605 144.358 129.587 143.428 129.381C141.81 129.002 140.311 127.762 139.106 126.66C139.915 126.642 141.017 126.711 141.775 126.487C142.826 126.177 142.946 125.506 143.377 124.61C142.343 124.197 141.396 124.455 140.328 124.283C138.847 124.059 138.141 122.75 137.229 121.7C138.021 120.047 138.813 118.393 140.036 117.033C141.861 114.966 144.617 113.037 147.475 113.003C148.612 113.003 150.403 113.21 151.247 114.036C151.247 114.174 151.247 114.329 151.299 114.467C151.712 116.378 155.07 118.772 154.02 120.839V120.804Z" fill="#E3A491"/>
<path d="M118.872 130.93C118.201 130.172 119.148 129.087 119.992 129.656C126.364 133.944 134.837 136.389 141.949 132.308C142.139 132.204 142.087 131.894 142.19 131.688C142.431 131.154 143.465 131.584 144.205 131.843C144.653 131.998 144.894 132.514 144.722 132.945C143.775 135.167 136.886 136.94 134.905 136.906C130.101 137.285 122.437 134.96 118.889 130.913L118.872 130.93Z" fill="#CFB593"/>
<path d="M159.621 128.726C158.949 130.034 158.037 131.154 156.797 131.963C155.281 132.945 152.44 133.84 150.631 133.358C149.908 133.151 149.994 133.031 149.615 132.428C150.063 129.724 154.007 129.724 155.901 127.158C155.987 127.038 156.056 126.935 156.142 126.814L156.728 128.881C157.744 129.208 158.553 128.794 159.621 128.726Z" fill="#CFB593"/>
<path d="M3.14371 34.5066C3.29871 31.2689 3.62597 28.3412 6.20921 26.0335C8.70634 23.812 12.2195 23.5364 15.4055 23.8637C27.6845 25.1036 38.3964 33.6972 45.8534 42.9624C48.1611 45.8384 50.3655 48.9211 51.9154 52.2793C48.3161 50.7638 44.2344 49.0244 40.3768 50.7121C39.3779 51.1599 38.6547 51.7109 37.8625 52.4515L37.6214 52.9337C37.9314 55.2069 39.998 56.5675 41.7374 57.8763C44.5101 59.9601 47.5067 61.6822 49.9866 64.1277C47.1967 64.541 43.6835 64.5583 41.7891 66.9693L41.4103 68.2954C41.9786 72.2563 43.4595 73.6513 46.4561 76.114L49.4181 78.3011C45.7844 81.4699 42.5468 81.8832 37.897 81.9693C30.4228 80.6088 23.2758 75.7179 18.0749 70.3447C8.98191 60.959 2.86817 47.7156 3.14371 34.5066Z" fill="#E3A491"/>
<path d="M3.14419 34.5066C3.29919 31.2689 3.62645 28.3412 6.20969 26.0335C8.70682 23.812 12.22 23.5364 15.406 23.8637C27.685 25.1036 38.3969 33.6972 45.8538 42.9624C48.1615 45.8384 50.3659 48.9211 51.9159 52.2793C48.3166 50.7638 44.2349 49.0244 40.3773 50.7121C39.3784 51.1599 38.6552 51.7109 37.863 52.4515C37.2602 50.6432 36.1753 49.3172 34.9182 47.9222C28.8217 41.1025 18.9364 32.4055 9.20623 32.0611C6.53688 31.975 5.02133 32.6639 3.12695 34.4894L3.14419 34.5066Z" fill="#C67F6C"/>
<path d="M46.4722 76.1147C45.5938 76.1492 44.5778 76.2353 43.734 75.9425C41.9085 75.3397 41.1506 73.4109 40.3929 71.8265C40.1862 70.9827 39.9279 69.9494 39.9796 69.0711C40.0485 67.7967 40.7546 67.0906 41.5813 66.2123C39.4114 63.3191 36.8281 59.7887 36.432 56.1032C36.277 54.6222 36.6558 54.0366 37.6202 52.9517C37.9302 55.2249 39.9968 56.5854 41.7362 57.8771C44.5089 59.9437 47.5055 61.6658 49.9854 64.1285C47.1955 64.5418 43.6995 64.559 41.8052 66.9701L41.4263 68.3133C41.9947 72.2743 43.4928 73.6693 46.4722 76.1147Z" fill="#C67F6C"/>
<path d="M168.365 73.9448C172.24 74.1343 175.46 74.5131 178.284 77.5097C182.039 81.4879 182.986 87.6188 182.71 92.9058C182.538 96.0746 181.935 100.036 180.075 102.653C179.972 102.808 179.869 102.963 179.765 103.101C179.697 103.187 179.628 103.29 179.559 103.377C177.802 107.062 175.098 109.766 171.189 111.126C168.468 112.073 165.179 112.315 162.578 110.885C160.546 109.766 159.857 108.612 159.272 106.442C159.237 104.909 158.841 103.273 158.6 101.741C157.136 95.9368 157.463 89.8404 159.53 84.2261C160.167 82.1251 161.114 80.5062 162.337 78.7152C163.939 76.4592 166.04 75.2537 168.399 73.9448H168.365Z" fill="#15621B"/>
<path d="M177.89 86.3614C175.737 80.73 173.584 78.6634 168.504 75.7357C170.26 75.0641 172.258 75.3569 173.928 76.149C177.046 77.6129 179.25 80.8161 180.352 84.0021C182.66 90.6669 181.075 96.7977 179.543 103.359C177.786 107.045 175.082 109.748 171.173 111.109C168.452 112.056 165.163 112.297 162.562 110.868C160.53 109.748 159.841 108.595 159.256 106.425C159.221 104.892 158.825 103.256 158.584 101.723C158.963 102.068 159.342 102.412 159.721 102.756C161.718 104.461 164.095 106.218 166.885 105.891C170.226 105.495 172.74 102.515 174.721 100.07C175.341 98.8644 175.84 97.6244 176.357 96.3844C177.097 95.73 177.889 95.1789 178.699 94.6106C179.043 91.614 178.699 89.2375 177.89 86.3614Z" fill="#FFF4D4"/>
<path d="M161.637 87.3945C160.603 84.1568 163.6 79.6965 167.027 81.9697C169.335 83.5541 169.421 87.9628 167.044 89.7367C165.029 91.4072 162.205 89.8744 161.654 87.4806V87.3945H161.637Z" fill="#FFF4D4"/>
<path d="M178.732 94.5759C178.181 98.6402 176.614 103.376 173.445 106.063C171.361 108.37 168.244 109.645 165.093 108.956C163.043 108.525 161.149 107.664 159.375 106.51C159.117 106.132 159.22 105.615 159.134 105.167C159.031 104.099 158.704 102.997 158.635 101.947C158.652 101.912 158.704 101.912 158.755 101.947C159.41 102.515 160.099 103.152 160.805 103.686C166.333 108.319 170.776 105.184 174.548 100.311C175.391 99.0019 175.908 97.5036 176.476 96.0742C177.424 92.8021 177.32 89.84 177.871 86.5851C177.923 86.344 177.992 86.4301 178.044 86.654C178.767 89.3061 179.06 91.7171 178.75 94.4898V94.5587L178.732 94.5759Z" fill="#28DA5E"/>
<path d="M185.21 30.8908C185.796 22.8999 183.66 13.6519 185.882 5.9711C186.243 4.71392 186.657 3.7495 187.862 3.1123C189.137 3.2673 189.378 3.64619 190.325 4.47283C196.473 10.0698 199.469 18.0951 199.9 26.2926C200.417 36.04 197.214 45.6324 191.875 53.7094C189.998 57.5498 185.951 61.5452 182.386 63.8529L180.268 59.4959C181.714 58.2215 183.677 56.8265 184.676 55.156C185.331 54.071 185.399 53.3822 185.072 52.1939C184.383 51.4533 183.729 50.8506 183.35 49.8862C184.332 46.9585 186.967 44.5303 188.362 41.6715C188.431 41.5165 188.499 41.3615 188.586 41.2065L186.467 39.9149C185.555 40.0526 184.728 40.2421 183.815 39.9665C183.436 38.761 183.901 37.6761 184.246 36.505C184.814 34.5934 185.021 32.854 185.176 30.8735L185.21 30.8908Z" fill="#E3A491"/>
<path d="M188.619 41.2056C190.255 42.7383 190.582 44.6671 190.651 46.8371C190.702 48.9037 190.41 51.1769 191.047 53.1402L191.891 53.7085C190.014 57.5489 185.967 61.5443 182.402 63.852L180.283 59.4949C181.73 58.2206 183.693 56.8256 184.692 55.1551C185.346 54.0701 185.415 53.3812 185.088 52.193C184.399 51.4524 183.745 50.8497 183.366 49.8853C184.348 46.9576 186.983 44.5294 188.377 41.6706C188.446 41.5156 188.515 41.3606 188.601 41.2056H188.619Z" fill="#C67F6C"/>
<path d="M190.341 4.47195C189.928 5.26414 189.773 5.88413 189.583 6.74521C189.118 8.88069 188.274 10.8267 187.93 13.0311C187.069 18.4731 187.344 24.0184 186.793 29.4777V29.9599C186.707 31.8026 185.381 38.0024 185.777 39.0874C185.898 39.4318 186.259 39.6384 186.483 39.914C185.571 40.0517 184.744 40.2584 183.848 39.9656C183.47 38.7429 183.935 37.6752 184.279 36.5041C184.847 34.5925 185.054 32.8531 185.209 30.8726C185.795 22.8818 183.642 13.6338 185.88 5.95298C186.242 4.6958 186.655 3.73144 187.861 3.09424C189.135 3.24923 189.377 3.62807 190.341 4.45471V4.47195Z" fill="#D69280"/>
<path d="M17.1813 20.6089C32.3707 21.005 54.6899 31.9062 65.1434 43.0314C66.125 44.0991 67.0206 45.2358 67.7956 46.4585C73.0482 52.5205 70.1549 61.1313 72.4453 65.0234C70.6715 68.9844 68.0368 72.9798 63.9897 74.9086C63.9725 74.2025 63.9379 73.5481 63.8345 72.8592C61.8541 57.5148 54.3456 42.7558 42.4799 32.6468C39.3112 29.943 35.4363 28.1003 32.1125 25.5687L31.8197 25.3448C27.0148 23.3816 22.1928 21.8833 17.1641 20.6089H17.1813Z" fill="#010801"/>
<path d="M17.1797 20.6089C32.3691 21.005 54.6883 31.9062 65.1418 43.0314C66.1234 44.0991 67.019 45.2358 67.794 46.4585C65.8135 45.9591 63.2475 43.5825 61.5425 42.377C53.9823 36.9867 40.98 26.5676 31.8353 25.3621C27.0305 23.3988 22.2084 21.9005 17.1797 20.6261V20.6089Z" fill="#717978"/>
<path d="M183.662 3.02652L181.268 10.1735C181.991 12.6362 181.509 15.5122 181.423 18.0782C181.096 27.3606 180.941 38.968 176.067 47.2171C175.447 48.2849 174.931 48.6982 173.759 49.0426C171.9 47.8716 170.436 45.9255 169.024 44.255C165.648 40.2941 160.361 37.1941 156.004 34.3698L156.125 33.7498C156.676 33.4743 157.141 33.1471 157.761 33.1298C162.462 30.2538 166.578 26.8267 170.332 22.8141C172.123 20.7992 173.708 18.6637 175.275 16.4938C177.996 11.9818 180.441 7.15968 183.679 3.00928L183.662 3.02652Z" fill="url(#paint0_linear_58_298)"/>
<path d="M170.31 22.8306L172.015 24.6561C168.743 28.3759 164.3 32.5091 159.168 33.1979C158.668 33.2668 158.238 33.198 157.738 33.1463C162.44 30.2703 166.556 26.8432 170.31 22.8306Z" fill="#717978"/>
<path d="M183.662 3.02588L181.268 10.1728L178.065 16.8032L175.258 16.5104C177.979 11.9983 180.424 7.17628 183.662 3.02588Z" fill="#3DA059"/>
<path d="M175.257 16.5103L178.064 16.803C176.187 19.5585 174.155 22.1073 172.019 24.6733L170.314 22.8478C172.105 20.8329 173.69 18.6974 175.257 16.5275V16.5103Z" fill="#659978"/>
<defs>
<linearGradient id="paint0_linear_58_298" x1="184.49" y1="43.1825" x2="174.313" y2="12.7023" gradientUnits="userSpaceOnUse">
<stop stop-color="#1D1A1C"/>
<stop offset="1" stop-color="#424546"/>
</linearGradient>
</defs>
</svg>
